<mxfile host="app.diagrams.net" modified="2022-05-27T09:24:23.326Z" agent="5.0 (Windows NT 10.0; Win64; x64) AppleWebKit/537.36 (KHTML, like Gecko) Chrome/101.0.4951.64 Safari/537.36 Edg/101.0.1210.53" etag="2TAoLEdFluQVeHX6HKfz" version="18.1.3" type="github">
  <diagram id="qG5074VbgZ858oA-u2bF" name="Page-1">
    <mxGraphModel dx="1176" dy="1873" grid="1" gridSize="10" guides="1" tooltips="1" connect="1" arrows="1" fold="1" page="1" pageScale="1" pageWidth="827" pageHeight="1169" math="0" shadow="0">
      <root>
        <mxCell id="0" />
        <mxCell id="1" parent="0" />
        <mxCell id="IEl4pKbomUtRXo-w_HsP-146" value="" style="rounded=1;whiteSpace=wrap;html=1;labelBackgroundColor=#D9D9D9;fontFamily=Comic Sans MS;fontSize=30;fontColor=#000000;strokeColor=#2B0000;strokeWidth=3;fillColor=#FCFCFC;dashed=1;" vertex="1" parent="1">
          <mxGeometry x="1390" y="230" width="170" height="120" as="geometry" />
        </mxCell>
        <mxCell id="IEl4pKbomUtRXo-w_HsP-25" style="rounded=0;orthogonalLoop=1;jettySize=auto;html=1;exitX=0.25;exitY=1;exitDx=0;exitDy=0;fontFamily=Comic Sans MS;fontSize=20;fontColor=default;startArrow=none;startFill=0;endArrow=none;endFill=0;strokeColor=#2B0000;strokeWidth=3;" edge="1" parent="1" source="IEl4pKbomUtRXo-w_HsP-2" target="IEl4pKbomUtRXo-w_HsP-24">
          <mxGeometry relative="1" as="geometry" />
        </mxCell>
        <mxCell id="IEl4pKbomUtRXo-w_HsP-2" value="&lt;h2&gt;&lt;font&gt;学生&lt;/font&gt;&lt;/h2&gt;" style="rounded=1;whiteSpace=wrap;html=1;labelBackgroundColor=default;fontFamily=Comic Sans MS;fontSize=12;fontColor=default;strokeColor=#2B0000;fillColor=default;fontStyle=1;strokeWidth=3;" vertex="1" parent="1">
          <mxGeometry x="190" y="360" width="120" height="60" as="geometry" />
        </mxCell>
        <mxCell id="IEl4pKbomUtRXo-w_HsP-20" value="" style="edgeStyle=orthogonalEdgeStyle;curved=1;rounded=0;orthogonalLoop=1;jettySize=auto;html=1;fontFamily=Comic Sans MS;fontSize=20;fontColor=default;startArrow=none;startFill=0;endArrow=none;endFill=0;strokeColor=#2B0000;strokeWidth=3;" edge="1" parent="1" source="IEl4pKbomUtRXo-w_HsP-3" target="IEl4pKbomUtRXo-w_HsP-8">
          <mxGeometry relative="1" as="geometry" />
        </mxCell>
        <mxCell id="IEl4pKbomUtRXo-w_HsP-31" style="edgeStyle=none;rounded=0;orthogonalLoop=1;jettySize=auto;html=1;exitX=0.75;exitY=0;exitDx=0;exitDy=0;entryX=0.28;entryY=0.937;entryDx=0;entryDy=0;entryPerimeter=0;fontFamily=Comic Sans MS;fontSize=20;fontColor=default;startArrow=none;startFill=0;endArrow=none;endFill=0;strokeColor=#2B0000;strokeWidth=3;" edge="1" parent="1" source="IEl4pKbomUtRXo-w_HsP-3" target="IEl4pKbomUtRXo-w_HsP-28">
          <mxGeometry relative="1" as="geometry" />
        </mxCell>
        <mxCell id="IEl4pKbomUtRXo-w_HsP-32" value="" style="edgeStyle=none;rounded=0;orthogonalLoop=1;jettySize=auto;html=1;fontFamily=Comic Sans MS;fontSize=20;fontColor=default;startArrow=none;startFill=0;endArrow=none;endFill=0;strokeColor=#2B0000;strokeWidth=3;" edge="1" parent="1" source="IEl4pKbomUtRXo-w_HsP-3" target="IEl4pKbomUtRXo-w_HsP-30">
          <mxGeometry relative="1" as="geometry" />
        </mxCell>
        <mxCell id="IEl4pKbomUtRXo-w_HsP-33" value="" style="edgeStyle=none;rounded=0;orthogonalLoop=1;jettySize=auto;html=1;fontFamily=Comic Sans MS;fontSize=20;fontColor=default;startArrow=none;startFill=0;endArrow=none;endFill=0;strokeColor=#2B0000;strokeWidth=3;" edge="1" parent="1" source="IEl4pKbomUtRXo-w_HsP-3" target="IEl4pKbomUtRXo-w_HsP-30">
          <mxGeometry relative="1" as="geometry" />
        </mxCell>
        <mxCell id="IEl4pKbomUtRXo-w_HsP-3" value="&lt;h2&gt;班级&lt;/h2&gt;" style="rounded=1;whiteSpace=wrap;html=1;labelBackgroundColor=default;fontFamily=Comic Sans MS;fontSize=12;fontColor=default;strokeColor=#2B0000;fillColor=default;fontStyle=1;strokeWidth=3;" vertex="1" parent="1">
          <mxGeometry x="480" y="360" width="120" height="60" as="geometry" />
        </mxCell>
        <mxCell id="IEl4pKbomUtRXo-w_HsP-18" value="" style="edgeStyle=orthogonalEdgeStyle;curved=1;rounded=0;orthogonalLoop=1;jettySize=auto;html=1;fontFamily=Comic Sans MS;fontSize=20;fontColor=default;startArrow=none;startFill=0;endArrow=none;endFill=0;strokeColor=#2B0000;strokeWidth=3;" edge="1" parent="1" source="IEl4pKbomUtRXo-w_HsP-4" target="IEl4pKbomUtRXo-w_HsP-7">
          <mxGeometry relative="1" as="geometry" />
        </mxCell>
        <mxCell id="IEl4pKbomUtRXo-w_HsP-37" value="" style="edgeStyle=none;rounded=0;orthogonalLoop=1;jettySize=auto;html=1;fontFamily=Comic Sans MS;fontSize=20;fontColor=default;startArrow=none;startFill=0;endArrow=none;endFill=0;strokeColor=#2B0000;strokeWidth=3;" edge="1" parent="1" source="IEl4pKbomUtRXo-w_HsP-4" target="IEl4pKbomUtRXo-w_HsP-36">
          <mxGeometry relative="1" as="geometry" />
        </mxCell>
        <mxCell id="IEl4pKbomUtRXo-w_HsP-142" value="" style="edgeStyle=none;rounded=0;orthogonalLoop=1;jettySize=auto;html=1;fontFamily=Comic Sans MS;fontSize=30;fontColor=#000000;startArrow=none;startFill=0;endArrow=none;endFill=0;strokeColor=#2B0000;strokeWidth=3;" edge="1" parent="1" source="IEl4pKbomUtRXo-w_HsP-4" target="IEl4pKbomUtRXo-w_HsP-140">
          <mxGeometry relative="1" as="geometry" />
        </mxCell>
        <mxCell id="IEl4pKbomUtRXo-w_HsP-4" value="&lt;h2 style=&quot;&quot;&gt;系别&lt;/h2&gt;" style="rounded=1;whiteSpace=wrap;html=1;labelBackgroundColor=default;fontFamily=Comic Sans MS;fontSize=12;fontColor=default;strokeColor=#2B0000;fillColor=default;fontStyle=1;strokeWidth=3;" vertex="1" parent="1">
          <mxGeometry x="480" y="580" width="120" height="60" as="geometry" />
        </mxCell>
        <mxCell id="IEl4pKbomUtRXo-w_HsP-104" value="" style="edgeStyle=none;rounded=0;orthogonalLoop=1;jettySize=auto;html=1;fontFamily=Comic Sans MS;fontSize=30;fontColor=#000000;startArrow=none;startFill=0;endArrow=none;endFill=0;strokeColor=#2B0000;strokeWidth=3;" edge="1" parent="1" source="IEl4pKbomUtRXo-w_HsP-5" target="IEl4pKbomUtRXo-w_HsP-6">
          <mxGeometry relative="1" as="geometry" />
        </mxCell>
        <mxCell id="IEl4pKbomUtRXo-w_HsP-144" style="edgeStyle=none;rounded=0;orthogonalLoop=1;jettySize=auto;html=1;exitX=0.75;exitY=1;exitDx=0;exitDy=0;entryX=0.289;entryY=0.032;entryDx=0;entryDy=0;entryPerimeter=0;fontFamily=Comic Sans MS;fontSize=30;fontColor=#000000;startArrow=none;startFill=0;endArrow=none;endFill=0;strokeColor=#2B0000;strokeWidth=3;" edge="1" parent="1" source="IEl4pKbomUtRXo-w_HsP-5" target="IEl4pKbomUtRXo-w_HsP-143">
          <mxGeometry relative="1" as="geometry" />
        </mxCell>
        <mxCell id="IEl4pKbomUtRXo-w_HsP-5" value="&lt;h2 style=&quot;&quot;&gt;学院&lt;/h2&gt;" style="rounded=1;whiteSpace=wrap;html=1;labelBackgroundColor=default;fontFamily=Comic Sans MS;fontSize=12;fontColor=default;strokeColor=#2B0000;fillColor=default;fontStyle=1;strokeWidth=3;" vertex="1" parent="1">
          <mxGeometry x="165" y="580" width="120" height="60" as="geometry" />
        </mxCell>
        <mxCell id="IEl4pKbomUtRXo-w_HsP-17" style="edgeStyle=orthogonalEdgeStyle;curved=1;rounded=0;orthogonalLoop=1;jettySize=auto;html=1;exitX=1;exitY=0.5;exitDx=0;exitDy=0;entryX=0;entryY=0.5;entryDx=0;entryDy=0;fontFamily=Comic Sans MS;fontSize=20;fontColor=default;startArrow=none;startFill=0;endArrow=none;endFill=0;strokeColor=#2B0000;strokeWidth=3;" edge="1" parent="1" source="IEl4pKbomUtRXo-w_HsP-6" target="IEl4pKbomUtRXo-w_HsP-4">
          <mxGeometry relative="1" as="geometry" />
        </mxCell>
        <mxCell id="IEl4pKbomUtRXo-w_HsP-6" value="&lt;span style=&quot;font-size: 20px;&quot;&gt;包含&lt;/span&gt;" style="rhombus;whiteSpace=wrap;html=1;labelBackgroundColor=default;fontFamily=Comic Sans MS;fontSize=24;fontColor=default;strokeColor=#2B0000;fillColor=default;strokeWidth=3;" vertex="1" parent="1">
          <mxGeometry x="350" y="580" width="80" height="60" as="geometry" />
        </mxCell>
        <mxCell id="IEl4pKbomUtRXo-w_HsP-19" value="" style="edgeStyle=orthogonalEdgeStyle;curved=1;rounded=0;orthogonalLoop=1;jettySize=auto;html=1;fontFamily=Comic Sans MS;fontSize=20;fontColor=default;startArrow=none;startFill=0;endArrow=none;endFill=0;strokeColor=#2B0000;strokeWidth=3;" edge="1" parent="1" source="IEl4pKbomUtRXo-w_HsP-7" target="IEl4pKbomUtRXo-w_HsP-3">
          <mxGeometry relative="1" as="geometry" />
        </mxCell>
        <mxCell id="IEl4pKbomUtRXo-w_HsP-7" value="&lt;span style=&quot;font-size: 20px;&quot;&gt;包含&lt;/span&gt;" style="rhombus;whiteSpace=wrap;html=1;labelBackgroundColor=default;fontFamily=Comic Sans MS;fontSize=24;fontColor=default;strokeColor=#2B0000;fillColor=default;strokeWidth=3;" vertex="1" parent="1">
          <mxGeometry x="500" y="470" width="80" height="60" as="geometry" />
        </mxCell>
        <mxCell id="IEl4pKbomUtRXo-w_HsP-21" value="" style="edgeStyle=orthogonalEdgeStyle;curved=1;rounded=0;orthogonalLoop=1;jettySize=auto;html=1;fontFamily=Comic Sans MS;fontSize=20;fontColor=default;startArrow=none;startFill=0;endArrow=none;endFill=0;strokeColor=#2B0000;strokeWidth=3;" edge="1" parent="1" source="IEl4pKbomUtRXo-w_HsP-8" target="IEl4pKbomUtRXo-w_HsP-2">
          <mxGeometry relative="1" as="geometry" />
        </mxCell>
        <mxCell id="IEl4pKbomUtRXo-w_HsP-8" value="&lt;font style=&quot;font-size: 20px;&quot;&gt;包含&lt;/font&gt;" style="rhombus;whiteSpace=wrap;html=1;labelBackgroundColor=default;fontFamily=Comic Sans MS;fontSize=24;fontColor=default;strokeColor=#2B0000;fillColor=default;strokeWidth=3;" vertex="1" parent="1">
          <mxGeometry x="350" y="360" width="80" height="60" as="geometry" />
        </mxCell>
        <mxCell id="IEl4pKbomUtRXo-w_HsP-27" style="edgeStyle=none;rounded=0;orthogonalLoop=1;jettySize=auto;html=1;exitX=1;exitY=1;exitDx=0;exitDy=0;entryX=0;entryY=0.25;entryDx=0;entryDy=0;fontFamily=Comic Sans MS;fontSize=20;fontColor=default;startArrow=none;startFill=0;endArrow=none;endFill=0;strokeColor=#2B0000;strokeWidth=3;" edge="1" parent="1" source="IEl4pKbomUtRXo-w_HsP-22" target="IEl4pKbomUtRXo-w_HsP-2">
          <mxGeometry relative="1" as="geometry" />
        </mxCell>
        <mxCell id="IEl4pKbomUtRXo-w_HsP-22" value="学号" style="ellipse;whiteSpace=wrap;html=1;labelBackgroundColor=default;fontFamily=Comic Sans MS;fontSize=20;fontColor=default;strokeColor=#2B0000;fillColor=default;strokeWidth=3;" vertex="1" parent="1">
          <mxGeometry x="70" y="290" width="90" height="60" as="geometry" />
        </mxCell>
        <mxCell id="IEl4pKbomUtRXo-w_HsP-26" value="" style="edgeStyle=none;rounded=0;orthogonalLoop=1;jettySize=auto;html=1;fontFamily=Comic Sans MS;fontSize=20;fontColor=default;startArrow=none;startFill=0;endArrow=none;endFill=0;strokeColor=#2B0000;strokeWidth=3;" edge="1" parent="1" source="IEl4pKbomUtRXo-w_HsP-23" target="IEl4pKbomUtRXo-w_HsP-2">
          <mxGeometry relative="1" as="geometry" />
        </mxCell>
        <mxCell id="IEl4pKbomUtRXo-w_HsP-23" value="名字" style="ellipse;whiteSpace=wrap;html=1;labelBackgroundColor=default;fontFamily=Comic Sans MS;fontSize=20;fontColor=default;strokeColor=#2B0000;fillColor=default;strokeWidth=3;" vertex="1" parent="1">
          <mxGeometry x="40" y="370" width="90" height="60" as="geometry" />
        </mxCell>
        <mxCell id="IEl4pKbomUtRXo-w_HsP-24" value="班级号" style="ellipse;whiteSpace=wrap;html=1;labelBackgroundColor=default;fontFamily=Comic Sans MS;fontSize=20;fontColor=default;strokeColor=#2B0000;fillColor=default;strokeWidth=3;" vertex="1" parent="1">
          <mxGeometry x="100" y="450" width="90" height="60" as="geometry" />
        </mxCell>
        <mxCell id="IEl4pKbomUtRXo-w_HsP-28" value="班级号" style="ellipse;whiteSpace=wrap;html=1;labelBackgroundColor=default;fontFamily=Comic Sans MS;fontSize=20;fontColor=default;strokeColor=#2B0000;fillColor=default;strokeWidth=3;" vertex="1" parent="1">
          <mxGeometry x="610" y="230" width="90" height="60" as="geometry" />
        </mxCell>
        <mxCell id="IEl4pKbomUtRXo-w_HsP-34" style="edgeStyle=none;rounded=0;orthogonalLoop=1;jettySize=auto;html=1;exitX=0;exitY=1;exitDx=0;exitDy=0;entryX=1;entryY=0.25;entryDx=0;entryDy=0;fontFamily=Comic Sans MS;fontSize=20;fontColor=default;startArrow=none;startFill=0;endArrow=none;endFill=0;strokeColor=#2B0000;strokeWidth=3;" edge="1" parent="1" source="IEl4pKbomUtRXo-w_HsP-29" target="IEl4pKbomUtRXo-w_HsP-3">
          <mxGeometry relative="1" as="geometry" />
        </mxCell>
        <mxCell id="IEl4pKbomUtRXo-w_HsP-29" value="人数" style="ellipse;whiteSpace=wrap;html=1;labelBackgroundColor=default;fontFamily=Comic Sans MS;fontSize=20;fontColor=default;strokeColor=#2B0000;fillColor=default;strokeWidth=3;" vertex="1" parent="1">
          <mxGeometry x="650" y="310" width="90" height="60" as="geometry" />
        </mxCell>
        <mxCell id="IEl4pKbomUtRXo-w_HsP-30" value="系名" style="ellipse;whiteSpace=wrap;html=1;labelBackgroundColor=default;fontFamily=Comic Sans MS;fontSize=20;fontColor=default;strokeColor=#2B0000;fillColor=default;strokeWidth=3;" vertex="1" parent="1">
          <mxGeometry x="650" y="400" width="90" height="60" as="geometry" />
        </mxCell>
        <mxCell id="IEl4pKbomUtRXo-w_HsP-39" style="edgeStyle=none;rounded=0;orthogonalLoop=1;jettySize=auto;html=1;exitX=0;exitY=0;exitDx=0;exitDy=0;entryX=0.75;entryY=1;entryDx=0;entryDy=0;fontFamily=Comic Sans MS;fontSize=20;fontColor=default;startArrow=none;startFill=0;endArrow=none;endFill=0;strokeColor=#2B0000;strokeWidth=3;" edge="1" parent="1" source="IEl4pKbomUtRXo-w_HsP-35" target="IEl4pKbomUtRXo-w_HsP-4">
          <mxGeometry relative="1" as="geometry" />
        </mxCell>
        <mxCell id="IEl4pKbomUtRXo-w_HsP-35" value="学院号" style="ellipse;whiteSpace=wrap;html=1;labelBackgroundColor=default;fontFamily=Comic Sans MS;fontSize=20;fontColor=default;strokeColor=#2B0000;fillColor=default;strokeWidth=3;" vertex="1" parent="1">
          <mxGeometry x="590" y="690" width="90" height="60" as="geometry" />
        </mxCell>
        <mxCell id="IEl4pKbomUtRXo-w_HsP-36" value="系名" style="ellipse;whiteSpace=wrap;html=1;labelBackgroundColor=default;fontFamily=Comic Sans MS;fontSize=20;fontColor=default;strokeColor=#2B0000;fillColor=default;strokeWidth=3;" vertex="1" parent="1">
          <mxGeometry x="460" y="690" width="90" height="60" as="geometry" />
        </mxCell>
        <mxCell id="IEl4pKbomUtRXo-w_HsP-42" style="edgeStyle=none;rounded=0;orthogonalLoop=1;jettySize=auto;html=1;exitX=1;exitY=0;exitDx=0;exitDy=0;entryX=0.25;entryY=1;entryDx=0;entryDy=0;fontFamily=Comic Sans MS;fontSize=20;fontColor=default;startArrow=none;startFill=0;endArrow=none;endFill=0;strokeColor=#2B0000;strokeWidth=3;" edge="1" parent="1" source="IEl4pKbomUtRXo-w_HsP-40" target="IEl4pKbomUtRXo-w_HsP-5">
          <mxGeometry relative="1" as="geometry" />
        </mxCell>
        <mxCell id="IEl4pKbomUtRXo-w_HsP-40" value="学院号" style="ellipse;whiteSpace=wrap;html=1;labelBackgroundColor=default;fontFamily=Comic Sans MS;fontSize=20;fontColor=default;strokeColor=#2B0000;fillColor=default;strokeWidth=3;" vertex="1" parent="1">
          <mxGeometry x="50" y="680" width="90" height="60" as="geometry" />
        </mxCell>
        <mxCell id="IEl4pKbomUtRXo-w_HsP-43" value="" style="edgeStyle=none;rounded=0;orthogonalLoop=1;jettySize=auto;html=1;fontFamily=Comic Sans MS;fontSize=20;fontColor=default;startArrow=none;startFill=0;endArrow=none;endFill=0;strokeColor=#2B0000;strokeWidth=3;" edge="1" parent="1" source="IEl4pKbomUtRXo-w_HsP-41" target="IEl4pKbomUtRXo-w_HsP-5">
          <mxGeometry relative="1" as="geometry" />
        </mxCell>
        <mxCell id="IEl4pKbomUtRXo-w_HsP-41" value="学院名" style="ellipse;whiteSpace=wrap;html=1;labelBackgroundColor=default;fontFamily=Comic Sans MS;fontSize=20;fontColor=default;strokeColor=#2B0000;fillColor=default;strokeWidth=3;" vertex="1" parent="1">
          <mxGeometry x="165" y="710" width="90" height="60" as="geometry" />
        </mxCell>
        <mxCell id="IEl4pKbomUtRXo-w_HsP-46" value="" style="edgeStyle=none;rounded=0;orthogonalLoop=1;jettySize=auto;html=1;fontFamily=Comic Sans MS;fontSize=20;fontColor=default;startArrow=none;startFill=0;endArrow=none;endFill=0;strokeColor=#2B0000;strokeWidth=3;" edge="1" parent="1" source="IEl4pKbomUtRXo-w_HsP-44" target="IEl4pKbomUtRXo-w_HsP-45">
          <mxGeometry relative="1" as="geometry" />
        </mxCell>
        <mxCell id="IEl4pKbomUtRXo-w_HsP-118" value="" style="edgeStyle=none;rounded=0;orthogonalLoop=1;jettySize=auto;html=1;fontFamily=Comic Sans MS;fontSize=30;fontColor=#000000;startArrow=none;startFill=0;endArrow=none;endFill=0;strokeColor=#2B0000;strokeWidth=3;" edge="1" parent="1" source="IEl4pKbomUtRXo-w_HsP-44" target="IEl4pKbomUtRXo-w_HsP-117">
          <mxGeometry relative="1" as="geometry" />
        </mxCell>
        <mxCell id="IEl4pKbomUtRXo-w_HsP-44" value="测试结果" style="rounded=1;whiteSpace=wrap;html=1;labelBackgroundColor=default;fontFamily=Comic Sans MS;fontSize=20;fontColor=default;strokeColor=#2B0000;fillColor=default;strokeWidth=3;" vertex="1" parent="1">
          <mxGeometry x="190" y="-40" width="120" height="60" as="geometry" />
        </mxCell>
        <mxCell id="IEl4pKbomUtRXo-w_HsP-47" value="" style="edgeStyle=none;rounded=0;orthogonalLoop=1;jettySize=auto;html=1;fontFamily=Comic Sans MS;fontSize=20;fontColor=default;startArrow=none;startFill=0;endArrow=none;endFill=0;strokeColor=#2B0000;strokeWidth=3;" edge="1" parent="1" source="IEl4pKbomUtRXo-w_HsP-45" target="IEl4pKbomUtRXo-w_HsP-2">
          <mxGeometry relative="1" as="geometry" />
        </mxCell>
        <mxCell id="IEl4pKbomUtRXo-w_HsP-45" value="拥有" style="rhombus;whiteSpace=wrap;html=1;labelBackgroundColor=default;fontFamily=Comic Sans MS;fontSize=20;fontColor=default;strokeColor=#2B0000;fillColor=default;strokeWidth=3;" vertex="1" parent="1">
          <mxGeometry x="210" y="170" width="80" height="60" as="geometry" />
        </mxCell>
        <mxCell id="IEl4pKbomUtRXo-w_HsP-51" style="edgeStyle=none;rounded=0;orthogonalLoop=1;jettySize=auto;html=1;exitX=1;exitY=1;exitDx=0;exitDy=0;entryX=0.25;entryY=0;entryDx=0;entryDy=0;fontFamily=Comic Sans MS;fontSize=20;fontColor=default;startArrow=none;startFill=0;endArrow=none;endFill=0;strokeColor=#2B0000;strokeWidth=3;" edge="1" parent="1" source="IEl4pKbomUtRXo-w_HsP-48" target="IEl4pKbomUtRXo-w_HsP-44">
          <mxGeometry relative="1" as="geometry" />
        </mxCell>
        <mxCell id="IEl4pKbomUtRXo-w_HsP-48" value="学号" style="ellipse;whiteSpace=wrap;html=1;labelBackgroundColor=default;fontFamily=Comic Sans MS;fontSize=20;fontColor=default;strokeColor=#2B0000;fillColor=default;strokeWidth=3;" vertex="1" parent="1">
          <mxGeometry x="80" y="-130" width="90" height="60" as="geometry" />
        </mxCell>
        <mxCell id="IEl4pKbomUtRXo-w_HsP-52" value="" style="edgeStyle=none;rounded=0;orthogonalLoop=1;jettySize=auto;html=1;fontFamily=Comic Sans MS;fontSize=20;fontColor=default;startArrow=none;startFill=0;endArrow=none;endFill=0;strokeColor=#2B0000;strokeWidth=3;" edge="1" parent="1" source="IEl4pKbomUtRXo-w_HsP-49" target="IEl4pKbomUtRXo-w_HsP-44">
          <mxGeometry relative="1" as="geometry" />
        </mxCell>
        <mxCell id="IEl4pKbomUtRXo-w_HsP-49" value="时间" style="ellipse;whiteSpace=wrap;html=1;labelBackgroundColor=default;fontFamily=Comic Sans MS;fontSize=20;fontColor=default;strokeColor=#2B0000;fillColor=default;strokeWidth=3;" vertex="1" parent="1">
          <mxGeometry x="180" y="-160" width="90" height="60" as="geometry" />
        </mxCell>
        <mxCell id="IEl4pKbomUtRXo-w_HsP-57" style="edgeStyle=none;rounded=0;orthogonalLoop=1;jettySize=auto;html=1;exitX=0;exitY=1;exitDx=0;exitDy=0;entryX=0.75;entryY=0;entryDx=0;entryDy=0;fontFamily=Comic Sans MS;fontSize=20;fontColor=default;startArrow=none;startFill=0;endArrow=none;endFill=0;strokeColor=#2B0000;strokeWidth=3;" edge="1" parent="1" source="IEl4pKbomUtRXo-w_HsP-50" target="IEl4pKbomUtRXo-w_HsP-44">
          <mxGeometry relative="1" as="geometry" />
        </mxCell>
        <mxCell id="IEl4pKbomUtRXo-w_HsP-50" value="类型" style="ellipse;whiteSpace=wrap;html=1;labelBackgroundColor=default;fontFamily=Comic Sans MS;fontSize=20;fontColor=default;strokeColor=#2B0000;fillColor=default;strokeWidth=3;" vertex="1" parent="1">
          <mxGeometry x="300" y="-140" width="90" height="60" as="geometry" />
        </mxCell>
        <mxCell id="IEl4pKbomUtRXo-w_HsP-55" value="题型" style="rounded=1;whiteSpace=wrap;html=1;labelBackgroundColor=default;fontFamily=Comic Sans MS;fontSize=20;fontColor=default;strokeColor=#2B0000;fillColor=default;strokeWidth=3;" vertex="1" parent="1">
          <mxGeometry x="881" y="125" width="100" height="60" as="geometry" />
        </mxCell>
        <mxCell id="IEl4pKbomUtRXo-w_HsP-59" value="" style="edgeStyle=none;rounded=0;orthogonalLoop=1;jettySize=auto;html=1;fontFamily=Comic Sans MS;fontSize=20;fontColor=default;startArrow=none;startFill=0;endArrow=none;endFill=0;strokeColor=#2B0000;strokeWidth=3;" edge="1" parent="1" source="IEl4pKbomUtRXo-w_HsP-58" target="IEl4pKbomUtRXo-w_HsP-55">
          <mxGeometry relative="1" as="geometry" />
        </mxCell>
        <mxCell id="IEl4pKbomUtRXo-w_HsP-131" style="edgeStyle=none;rounded=0;orthogonalLoop=1;jettySize=auto;html=1;exitX=1;exitY=1;exitDx=0;exitDy=0;entryX=0.254;entryY=0.004;entryDx=0;entryDy=0;entryPerimeter=0;fontFamily=Comic Sans MS;fontSize=30;fontColor=#000000;startArrow=none;startFill=0;endArrow=none;endFill=0;strokeColor=#005700;strokeWidth=3;dashed=1;fillColor=#008a00;" edge="1" parent="1" source="IEl4pKbomUtRXo-w_HsP-58" target="IEl4pKbomUtRXo-w_HsP-130">
          <mxGeometry relative="1" as="geometry" />
        </mxCell>
        <mxCell id="IEl4pKbomUtRXo-w_HsP-58" value="题型编号" style="ellipse;whiteSpace=wrap;html=1;labelBackgroundColor=default;fontFamily=Comic Sans MS;fontSize=20;fontColor=default;strokeColor=#2B0000;fillColor=default;strokeWidth=3;" vertex="1" parent="1">
          <mxGeometry x="886" y="240" width="90" height="60" as="geometry" />
        </mxCell>
        <mxCell id="IEl4pKbomUtRXo-w_HsP-101" style="edgeStyle=none;rounded=0;orthogonalLoop=1;jettySize=auto;html=1;exitX=0;exitY=0.5;exitDx=0;exitDy=0;entryX=1;entryY=0.5;entryDx=0;entryDy=0;fontFamily=Comic Sans MS;fontSize=30;fontColor=#000000;startArrow=none;startFill=0;endArrow=none;endFill=0;strokeColor=#2B0000;strokeWidth=3;" edge="1" parent="1" source="IEl4pKbomUtRXo-w_HsP-60" target="IEl4pKbomUtRXo-w_HsP-73">
          <mxGeometry relative="1" as="geometry" />
        </mxCell>
        <mxCell id="IEl4pKbomUtRXo-w_HsP-151" style="edgeStyle=none;rounded=0;orthogonalLoop=1;jettySize=auto;html=1;exitX=1;exitY=0.5;exitDx=0;exitDy=0;entryX=0;entryY=0.5;entryDx=0;entryDy=0;fontFamily=Comic Sans MS;fontSize=20;fontColor=#000000;startArrow=none;startFill=0;endArrow=none;endFill=0;strokeColor=#2B0000;strokeWidth=3;" edge="1" parent="1" source="IEl4pKbomUtRXo-w_HsP-60" target="IEl4pKbomUtRXo-w_HsP-149">
          <mxGeometry relative="1" as="geometry" />
        </mxCell>
        <mxCell id="IEl4pKbomUtRXo-w_HsP-155" style="edgeStyle=none;rounded=0;orthogonalLoop=1;jettySize=auto;html=1;exitX=1;exitY=0.25;exitDx=0;exitDy=0;fontFamily=Comic Sans MS;fontSize=20;fontColor=#000000;startArrow=none;startFill=0;endArrow=none;endFill=0;strokeColor=#2B0000;strokeWidth=3;" edge="1" parent="1" source="IEl4pKbomUtRXo-w_HsP-60" target="IEl4pKbomUtRXo-w_HsP-148">
          <mxGeometry relative="1" as="geometry" />
        </mxCell>
        <mxCell id="IEl4pKbomUtRXo-w_HsP-60" value="题目" style="rounded=1;whiteSpace=wrap;html=1;labelBackgroundColor=default;fontFamily=Comic Sans MS;fontSize=20;fontColor=default;strokeColor=#2B0000;fillColor=default;strokeWidth=3;" vertex="1" parent="1">
          <mxGeometry x="1280" y="125" width="100" height="60" as="geometry" />
        </mxCell>
        <mxCell id="IEl4pKbomUtRXo-w_HsP-65" value="" style="edgeStyle=none;rounded=0;orthogonalLoop=1;jettySize=auto;html=1;fontFamily=Comic Sans MS;fontSize=20;fontColor=default;startArrow=none;startFill=0;endArrow=none;endFill=0;strokeColor=#2B0000;strokeWidth=3;" edge="1" parent="1" source="IEl4pKbomUtRXo-w_HsP-62" target="IEl4pKbomUtRXo-w_HsP-60">
          <mxGeometry relative="1" as="geometry" />
        </mxCell>
        <mxCell id="IEl4pKbomUtRXo-w_HsP-132" style="edgeStyle=none;rounded=0;orthogonalLoop=1;jettySize=auto;html=1;exitX=0.5;exitY=1;exitDx=0;exitDy=0;entryX=0.499;entryY=0.004;entryDx=0;entryDy=0;entryPerimeter=0;fontFamily=Comic Sans MS;fontSize=30;fontColor=#000000;startArrow=none;startFill=0;endArrow=none;endFill=0;strokeColor=#005700;strokeWidth=3;dashed=1;fillColor=#008a00;" edge="1" parent="1" source="IEl4pKbomUtRXo-w_HsP-62" target="IEl4pKbomUtRXo-w_HsP-130">
          <mxGeometry relative="1" as="geometry" />
        </mxCell>
        <mxCell id="IEl4pKbomUtRXo-w_HsP-62" value="题号" style="ellipse;whiteSpace=wrap;html=1;labelBackgroundColor=default;fontFamily=Comic Sans MS;fontSize=20;fontColor=default;strokeColor=#2B0000;fillColor=default;strokeWidth=3;" vertex="1" parent="1">
          <mxGeometry x="1145.75" y="240" width="90" height="60" as="geometry" />
        </mxCell>
        <mxCell id="IEl4pKbomUtRXo-w_HsP-66" value="" style="edgeStyle=none;rounded=0;orthogonalLoop=1;jettySize=auto;html=1;fontFamily=Comic Sans MS;fontSize=20;fontColor=default;startArrow=none;startFill=0;endArrow=none;endFill=0;strokeColor=#2B0000;strokeWidth=3;" edge="1" parent="1" source="IEl4pKbomUtRXo-w_HsP-63" target="IEl4pKbomUtRXo-w_HsP-60">
          <mxGeometry relative="1" as="geometry" />
        </mxCell>
        <mxCell id="IEl4pKbomUtRXo-w_HsP-63" value="内容" style="ellipse;whiteSpace=wrap;html=1;labelBackgroundColor=default;fontFamily=Comic Sans MS;fontSize=20;fontColor=default;strokeColor=#2B0000;fillColor=default;strokeWidth=3;" vertex="1" parent="1">
          <mxGeometry x="1350" y="20" width="90" height="60" as="geometry" />
        </mxCell>
        <mxCell id="IEl4pKbomUtRXo-w_HsP-133" style="edgeStyle=none;rounded=0;orthogonalLoop=1;jettySize=auto;html=1;exitX=0;exitY=1;exitDx=0;exitDy=0;entryX=0.677;entryY=-0.008;entryDx=0;entryDy=0;entryPerimeter=0;dashed=1;fontFamily=Comic Sans MS;fontSize=30;fontColor=#000000;startArrow=none;startFill=0;endArrow=none;endFill=0;strokeColor=#005700;strokeWidth=3;fillColor=#008a00;" edge="1" parent="1" source="IEl4pKbomUtRXo-w_HsP-64" target="IEl4pKbomUtRXo-w_HsP-130">
          <mxGeometry relative="1" as="geometry" />
        </mxCell>
        <mxCell id="IEl4pKbomUtRXo-w_HsP-64" value="选项(A | B)" style="ellipse;whiteSpace=wrap;html=1;labelBackgroundColor=#FFFFFF;fontFamily=Comic Sans MS;fontSize=20;fontColor=default;strokeColor=#2B0000;fillColor=default;strokeWidth=3;" vertex="1" parent="1">
          <mxGeometry x="1420" y="250" width="120" height="70" as="geometry" />
        </mxCell>
        <mxCell id="IEl4pKbomUtRXo-w_HsP-74" value="" style="edgeStyle=none;rounded=0;orthogonalLoop=1;jettySize=auto;html=1;fontFamily=Comic Sans MS;fontSize=20;fontColor=default;startArrow=none;startFill=0;endArrow=none;endFill=0;strokeColor=#2B0000;strokeWidth=3;" edge="1" parent="1" source="IEl4pKbomUtRXo-w_HsP-73" target="IEl4pKbomUtRXo-w_HsP-55">
          <mxGeometry relative="1" as="geometry" />
        </mxCell>
        <mxCell id="IEl4pKbomUtRXo-w_HsP-73" value="包含" style="rhombus;whiteSpace=wrap;html=1;labelBackgroundColor=default;fontFamily=Comic Sans MS;fontSize=20;fontColor=default;strokeColor=#2B0000;fillColor=default;strokeWidth=3;" vertex="1" parent="1">
          <mxGeometry x="1080" y="125" width="80" height="60" as="geometry" />
        </mxCell>
        <mxCell id="IEl4pKbomUtRXo-w_HsP-77" value="" style="edgeStyle=none;rounded=0;orthogonalLoop=1;jettySize=auto;html=1;fontFamily=Comic Sans MS;fontSize=20;fontColor=default;startArrow=none;startFill=0;endArrow=none;endFill=0;strokeColor=#2B0000;strokeWidth=3;" edge="1" parent="1" source="IEl4pKbomUtRXo-w_HsP-76" target="IEl4pKbomUtRXo-w_HsP-55">
          <mxGeometry relative="1" as="geometry" />
        </mxCell>
        <mxCell id="IEl4pKbomUtRXo-w_HsP-76" value="内容" style="ellipse;whiteSpace=wrap;html=1;labelBackgroundColor=default;fontFamily=Comic Sans MS;fontSize=20;fontColor=default;strokeColor=#2B0000;fillColor=default;strokeWidth=3;" vertex="1" parent="1">
          <mxGeometry x="760" y="170" width="90" height="60" as="geometry" />
        </mxCell>
        <mxCell id="IEl4pKbomUtRXo-w_HsP-94" style="edgeStyle=none;rounded=0;orthogonalLoop=1;jettySize=auto;html=1;exitX=1;exitY=1;exitDx=0;exitDy=0;entryX=0;entryY=0.25;entryDx=0;entryDy=0;fontFamily=Comic Sans MS;fontSize=20;fontColor=default;startArrow=none;startFill=0;endArrow=none;endFill=0;strokeColor=#2B0000;strokeWidth=3;" edge="1" parent="1" source="IEl4pKbomUtRXo-w_HsP-78" target="IEl4pKbomUtRXo-w_HsP-55">
          <mxGeometry relative="1" as="geometry" />
        </mxCell>
        <mxCell id="IEl4pKbomUtRXo-w_HsP-78" value="题数" style="ellipse;whiteSpace=wrap;html=1;labelBackgroundColor=default;fontFamily=Comic Sans MS;fontSize=20;fontColor=default;strokeColor=#2B0000;fillColor=default;strokeWidth=3;" vertex="1" parent="1">
          <mxGeometry x="740" y="50" width="90" height="60" as="geometry" />
        </mxCell>
        <mxCell id="IEl4pKbomUtRXo-w_HsP-83" value="选项k-v" style="rounded=1;whiteSpace=wrap;html=1;labelBackgroundColor=default;fontFamily=Comic Sans MS;fontSize=20;fontColor=default;strokeColor=#2B0000;fillColor=default;strokeWidth=3;" vertex="1" parent="1">
          <mxGeometry x="1296.5" y="540" width="100" height="60" as="geometry" />
        </mxCell>
        <mxCell id="IEl4pKbomUtRXo-w_HsP-137" style="edgeStyle=none;rounded=0;orthogonalLoop=1;jettySize=auto;html=1;exitX=1;exitY=0.5;exitDx=0;exitDy=0;entryX=0;entryY=0.5;entryDx=0;entryDy=0;fontFamily=Comic Sans MS;fontSize=30;fontColor=#CC0000;startArrow=none;startFill=0;endArrow=none;endFill=0;strokeColor=#2B0000;strokeWidth=3;" edge="1" parent="1" source="IEl4pKbomUtRXo-w_HsP-88" target="IEl4pKbomUtRXo-w_HsP-83">
          <mxGeometry relative="1" as="geometry" />
        </mxCell>
        <mxCell id="IEl4pKbomUtRXo-w_HsP-88" value="选项哈希码" style="ellipse;whiteSpace=wrap;html=1;labelBackgroundColor=default;fontFamily=Comic Sans MS;fontSize=20;fontColor=default;strokeColor=#2B0000;fillColor=default;strokeWidth=3;" vertex="1" parent="1">
          <mxGeometry x="1120.75" y="542" width="140" height="85" as="geometry" />
        </mxCell>
        <mxCell id="IEl4pKbomUtRXo-w_HsP-157" value="" style="edgeStyle=none;rounded=0;orthogonalLoop=1;jettySize=auto;html=1;fontFamily=Comic Sans MS;fontSize=20;fontColor=#000000;startArrow=none;startFill=0;endArrow=none;endFill=0;strokeColor=#2B0000;strokeWidth=3;" edge="1" parent="1" source="IEl4pKbomUtRXo-w_HsP-90" target="IEl4pKbomUtRXo-w_HsP-83">
          <mxGeometry relative="1" as="geometry" />
        </mxCell>
        <mxCell id="IEl4pKbomUtRXo-w_HsP-90" value="权重（EISN...）" style="ellipse;whiteSpace=wrap;html=1;labelBackgroundColor=default;fontFamily=Comic Sans MS;fontSize=20;fontColor=default;strokeColor=#2B0000;fillColor=default;strokeWidth=3;" vertex="1" parent="1">
          <mxGeometry x="1264.5" y="650" width="164" height="90" as="geometry" />
        </mxCell>
        <mxCell id="IEl4pKbomUtRXo-w_HsP-110" value="性格" style="rounded=1;whiteSpace=wrap;html=1;labelBackgroundColor=default;fontFamily=Comic Sans MS;fontSize=20;fontColor=default;strokeColor=#2B0000;fillColor=default;strokeWidth=3;" vertex="1" parent="1">
          <mxGeometry x="560" y="-40" width="120" height="60" as="geometry" />
        </mxCell>
        <mxCell id="IEl4pKbomUtRXo-w_HsP-111" style="edgeStyle=none;rounded=0;orthogonalLoop=1;jettySize=auto;html=1;exitX=1;exitY=1;exitDx=0;exitDy=0;entryX=0.25;entryY=0;entryDx=0;entryDy=0;fontFamily=Comic Sans MS;fontSize=20;fontColor=default;startArrow=none;startFill=0;endArrow=none;endFill=0;strokeColor=#2B0000;strokeWidth=3;" edge="1" parent="1" source="IEl4pKbomUtRXo-w_HsP-112" target="IEl4pKbomUtRXo-w_HsP-110">
          <mxGeometry relative="1" as="geometry" />
        </mxCell>
        <mxCell id="IEl4pKbomUtRXo-w_HsP-112" value="类型" style="ellipse;whiteSpace=wrap;html=1;labelBackgroundColor=default;fontFamily=Comic Sans MS;fontSize=20;fontColor=default;strokeColor=#2B0000;fillColor=default;strokeWidth=3;" vertex="1" parent="1">
          <mxGeometry x="480" y="-120" width="90" height="60" as="geometry" />
        </mxCell>
        <mxCell id="IEl4pKbomUtRXo-w_HsP-113" value="" style="edgeStyle=none;rounded=0;orthogonalLoop=1;jettySize=auto;html=1;fontFamily=Comic Sans MS;fontSize=20;fontColor=default;startArrow=none;startFill=0;endArrow=none;endFill=0;strokeColor=#2B0000;strokeWidth=3;" edge="1" parent="1" source="IEl4pKbomUtRXo-w_HsP-114" target="IEl4pKbomUtRXo-w_HsP-110">
          <mxGeometry relative="1" as="geometry" />
        </mxCell>
        <mxCell id="IEl4pKbomUtRXo-w_HsP-114" value="描述" style="ellipse;whiteSpace=wrap;html=1;labelBackgroundColor=default;fontFamily=Comic Sans MS;fontSize=20;fontColor=default;strokeColor=#2B0000;fillColor=default;strokeWidth=3;" vertex="1" parent="1">
          <mxGeometry x="610" y="-140" width="90" height="60" as="geometry" />
        </mxCell>
        <mxCell id="IEl4pKbomUtRXo-w_HsP-119" value="" style="edgeStyle=none;rounded=0;orthogonalLoop=1;jettySize=auto;html=1;fontFamily=Comic Sans MS;fontSize=30;fontColor=#000000;startArrow=none;startFill=0;endArrow=none;endFill=0;strokeColor=#2B0000;strokeWidth=3;" edge="1" parent="1" source="IEl4pKbomUtRXo-w_HsP-117" target="IEl4pKbomUtRXo-w_HsP-110">
          <mxGeometry relative="1" as="geometry" />
        </mxCell>
        <mxCell id="IEl4pKbomUtRXo-w_HsP-117" value="对应" style="rhombus;whiteSpace=wrap;html=1;fontSize=20;fontFamily=Comic Sans MS;strokeColor=#2B0000;rounded=1;labelBackgroundColor=default;strokeWidth=3;" vertex="1" parent="1">
          <mxGeometry x="390" y="-50" width="80" height="80" as="geometry" />
        </mxCell>
        <mxCell id="IEl4pKbomUtRXo-w_HsP-120" value="1" style="text;html=1;align=center;verticalAlign=middle;resizable=0;points=[];autosize=1;strokeColor=none;fillColor=none;fontSize=30;fontFamily=Comic Sans MS;fontColor=#000000;" vertex="1" parent="1">
          <mxGeometry x="335" y="-50" width="30" height="40" as="geometry" />
        </mxCell>
        <mxCell id="IEl4pKbomUtRXo-w_HsP-121" value="1" style="text;html=1;align=center;verticalAlign=middle;resizable=0;points=[];autosize=1;strokeColor=none;fillColor=none;fontSize=30;fontFamily=Comic Sans MS;fontColor=#000000;" vertex="1" parent="1">
          <mxGeometry x="495" y="-50" width="30" height="40" as="geometry" />
        </mxCell>
        <mxCell id="IEl4pKbomUtRXo-w_HsP-122" value="1" style="text;html=1;align=center;verticalAlign=middle;resizable=0;points=[];autosize=1;strokeColor=none;fillColor=none;fontSize=30;fontFamily=Comic Sans MS;fontColor=#000000;" vertex="1" parent="1">
          <mxGeometry x="255" y="280" width="30" height="40" as="geometry" />
        </mxCell>
        <mxCell id="IEl4pKbomUtRXo-w_HsP-123" value="n" style="text;html=1;align=center;verticalAlign=middle;resizable=0;points=[];autosize=1;strokeColor=none;fillColor=none;fontSize=30;fontFamily=Comic Sans MS;fontColor=#000000;" vertex="1" parent="1">
          <mxGeometry x="255" y="60" width="30" height="40" as="geometry" />
        </mxCell>
        <mxCell id="IEl4pKbomUtRXo-w_HsP-124" value="1" style="text;html=1;align=center;verticalAlign=middle;resizable=0;points=[];autosize=1;strokeColor=none;fillColor=none;fontSize=30;fontFamily=Comic Sans MS;fontColor=#000000;" vertex="1" parent="1">
          <mxGeometry x="430" y="350" width="30" height="40" as="geometry" />
        </mxCell>
        <mxCell id="IEl4pKbomUtRXo-w_HsP-125" value="n" style="text;html=1;align=center;verticalAlign=middle;resizable=0;points=[];autosize=1;strokeColor=none;fillColor=none;fontSize=30;fontFamily=Comic Sans MS;fontColor=#000000;" vertex="1" parent="1">
          <mxGeometry x="315" y="350" width="30" height="40" as="geometry" />
        </mxCell>
        <mxCell id="IEl4pKbomUtRXo-w_HsP-126" value="n" style="text;html=1;align=center;verticalAlign=middle;resizable=0;points=[];autosize=1;strokeColor=none;fillColor=none;fontSize=30;fontFamily=Comic Sans MS;fontColor=#000000;" vertex="1" parent="1">
          <mxGeometry x="430" y="560" width="30" height="40" as="geometry" />
        </mxCell>
        <mxCell id="IEl4pKbomUtRXo-w_HsP-127" value="1" style="text;html=1;align=center;verticalAlign=middle;resizable=0;points=[];autosize=1;strokeColor=none;fillColor=none;fontSize=30;fontFamily=Comic Sans MS;fontColor=#000000;" vertex="1" parent="1">
          <mxGeometry x="300" y="565" width="30" height="40" as="geometry" />
        </mxCell>
        <mxCell id="IEl4pKbomUtRXo-w_HsP-128" value="1" style="text;html=1;align=center;verticalAlign=middle;resizable=0;points=[];autosize=1;strokeColor=none;fillColor=none;fontSize=30;fontFamily=Comic Sans MS;fontColor=#000000;" vertex="1" parent="1">
          <mxGeometry x="1010" y="120" width="30" height="40" as="geometry" />
        </mxCell>
        <mxCell id="IEl4pKbomUtRXo-w_HsP-129" value="n" style="text;html=1;align=center;verticalAlign=middle;resizable=0;points=[];autosize=1;strokeColor=none;fillColor=none;fontSize=30;fontFamily=Comic Sans MS;fontColor=#000000;" vertex="1" parent="1">
          <mxGeometry x="1205.75" y="120" width="30" height="40" as="geometry" />
        </mxCell>
        <mxCell id="IEl4pKbomUtRXo-w_HsP-134" style="edgeStyle=none;rounded=0;orthogonalLoop=1;jettySize=auto;html=1;exitX=0;exitY=0;exitDx=115.75;exitDy=80;exitPerimeter=0;entryX=0.5;entryY=0;entryDx=0;entryDy=0;dashed=1;fontFamily=Comic Sans MS;fontSize=30;fontColor=#000000;startArrow=none;startFill=0;endArrow=classic;endFill=0;strokeColor=#6F0000;strokeWidth=3;fillColor=#a20025;" edge="1" parent="1" source="IEl4pKbomUtRXo-w_HsP-130" target="IEl4pKbomUtRXo-w_HsP-88">
          <mxGeometry relative="1" as="geometry" />
        </mxCell>
        <mxCell id="IEl4pKbomUtRXo-w_HsP-130" value="HASH" style="shape=cube;whiteSpace=wrap;html=1;boundedLbl=1;backgroundOutline=1;darkOpacity=0.05;darkOpacity2=0.1;labelBackgroundColor=#D9D9D9;fontFamily=Comic Sans MS;fontSize=30;fontColor=#CC0000;strokeColor=#2B0000;strokeWidth=3;fillColor=#B3B3B3;fontStyle=1" vertex="1" parent="1">
          <mxGeometry x="1085" y="350" width="211.5" height="80" as="geometry" />
        </mxCell>
        <mxCell id="IEl4pKbomUtRXo-w_HsP-138" value="&lt;font color=&quot;#000000&quot;&gt;1&lt;/font&gt;" style="text;html=1;align=center;verticalAlign=middle;resizable=0;points=[];autosize=1;strokeColor=none;fillColor=none;fontSize=30;fontFamily=Comic Sans MS;fontColor=#CC0000;" vertex="1" parent="1">
          <mxGeometry x="545" y="530" width="30" height="40" as="geometry" />
        </mxCell>
        <mxCell id="IEl4pKbomUtRXo-w_HsP-139" value="n" style="text;html=1;align=center;verticalAlign=middle;resizable=0;points=[];autosize=1;strokeColor=none;fillColor=none;fontSize=30;fontFamily=Comic Sans MS;fontColor=#000000;" vertex="1" parent="1">
          <mxGeometry x="540" y="430" width="30" height="40" as="geometry" />
        </mxCell>
        <mxCell id="IEl4pKbomUtRXo-w_HsP-140" value="人数" style="ellipse;whiteSpace=wrap;html=1;labelBackgroundColor=default;fontFamily=Comic Sans MS;fontSize=20;fontColor=default;strokeColor=#2B0000;fillColor=default;strokeWidth=3;" vertex="1" parent="1">
          <mxGeometry x="660" y="570" width="90" height="60" as="geometry" />
        </mxCell>
        <mxCell id="IEl4pKbomUtRXo-w_HsP-143" value="人数" style="ellipse;whiteSpace=wrap;html=1;labelBackgroundColor=default;fontFamily=Comic Sans MS;fontSize=20;fontColor=default;strokeColor=#2B0000;fillColor=default;strokeWidth=3;" vertex="1" parent="1">
          <mxGeometry x="270" y="690" width="90" height="60" as="geometry" />
        </mxCell>
        <mxCell id="IEl4pKbomUtRXo-w_HsP-147" value="&lt;font color=&quot;#006600&quot; style=&quot;font-size: 20px;&quot;&gt;只有管理员在后台可视化界面&lt;br&gt;为选项分配权值的时候才用得到&lt;/font&gt;" style="text;html=1;align=center;verticalAlign=middle;resizable=0;points=[];autosize=1;strokeColor=none;fillColor=none;fontSize=30;fontFamily=Comic Sans MS;fontColor=#000000;fontStyle=1" vertex="1" parent="1">
          <mxGeometry x="1355" y="370" width="300" height="80" as="geometry" />
        </mxCell>
        <mxCell id="IEl4pKbomUtRXo-w_HsP-148" value="&lt;font color=&quot;#000000&quot;&gt;A&lt;/font&gt;" style="ellipse;whiteSpace=wrap;html=1;aspect=fixed;labelBackgroundColor=#D9D9D9;fontFamily=Comic Sans MS;fontSize=20;fontColor=#006600;strokeColor=#2B0000;strokeWidth=3;fillColor=#FCFCFC;" vertex="1" parent="1">
          <mxGeometry x="1460" y="70" width="50" height="50" as="geometry" />
        </mxCell>
        <mxCell id="IEl4pKbomUtRXo-w_HsP-149" value="&lt;font color=&quot;#000000&quot;&gt;B&lt;/font&gt;" style="ellipse;whiteSpace=wrap;html=1;aspect=fixed;labelBackgroundColor=#D9D9D9;fontFamily=Comic Sans MS;fontSize=20;fontColor=#006600;strokeColor=#2B0000;strokeWidth=3;fillColor=#FCFCFC;" vertex="1" parent="1">
          <mxGeometry x="1460" y="150" width="50" height="50" as="geometry" />
        </mxCell>
        <mxCell id="IEl4pKbomUtRXo-w_HsP-156" value="&lt;span style=&quot;color: rgb(51, 51, 51); font-family: Arial, sans-serif; text-align: start; background-color: rgb(255, 255, 255);&quot;&gt;&lt;font style=&quot;font-size: 20px;&quot;&gt;������前端&lt;/font&gt;&lt;/span&gt;" style="text;html=1;align=center;verticalAlign=middle;resizable=0;points=[];autosize=1;strokeColor=none;fillColor=none;fontSize=20;fontFamily=Comic Sans MS;fontColor=#000000;" vertex="1" parent="1">
          <mxGeometry x="1560" y="240" width="70" height="30" as="geometry" />
        </mxCell>
      </root>
    </mxGraphModel>
  </diagram>
</mxfile>